<svg width="65" height="65" viewBox="0 0 65 65" fill="none" xmlns="http://www.w3.org/2000/svg">
<path d="M45.9658 16.9298C45.3441 16.5838 44.6602 16.3638 43.9533 16.2823C43.2464 16.2008 42.5304 16.2595 41.8463 16.4549C41.1621 16.6504 40.5231 16.9788 39.966 17.4213C39.4088 17.8639 38.9444 18.412 38.5992 19.0342L28.5431 37.1313L22.7879 31.3761C22.2882 30.8587 21.6905 30.4461 21.0297 30.1622C20.3688 29.8783 19.6581 29.7289 18.9388 29.7226C18.2196 29.7164 17.5063 29.8534 16.8407 30.1258C16.175 30.3981 15.5702 30.8003 15.0616 31.3089C14.553 31.8175 14.1508 32.4223 13.8785 33.088C13.6061 33.7537 13.4691 34.4669 13.4753 35.1861C13.4816 35.9054 13.631 36.6161 13.9149 37.277C14.1987 37.9379 14.6114 38.5356 15.1287 39.0352L25.9621 49.8686C26.9858 50.895 28.3671 51.4583 29.7917 51.4583L30.5419 51.4042C31.3721 51.288 32.1641 50.9808 32.8554 50.5066C33.5467 50.0324 34.1185 49.4042 34.5258 48.6715L48.0675 24.2965C48.4132 23.6748 48.6331 22.9911 48.7146 22.2844C48.7961 21.5777 48.7376 20.8619 48.5424 20.1778C48.3473 19.4938 48.0193 18.8549 47.5772 18.2976C47.1351 17.7403 46.5875 17.2755 45.9658 16.9298Z" fill="#E7717D"/>
</svg>
