<svg width="20" height="20" viewBox="0 0 20 20" fill="none" xmlns="http://www.w3.org/2000/svg">
<path d="M8.33366 5.00008H11.667C11.667 4.55805 11.4914 4.13413 11.1788 3.82157C10.8663 3.50901 10.4424 3.33341 10.0003 3.33341C9.5583 3.33341 9.13438 3.50901 8.82181 3.82157C8.50925 4.13413 8.33366 4.55805 8.33366 5.00008ZM6.66699 5.00008C6.66699 4.11603 7.01818 3.26818 7.6433 2.64306C8.26842 2.01794 9.11627 1.66675 10.0003 1.66675C10.8844 1.66675 11.7322 2.01794 12.3573 2.64306C12.9825 3.26818 13.3337 4.11603 13.3337 5.00008H17.5003C17.7213 5.00008 17.9333 5.08788 18.0896 5.24416C18.2459 5.40044 18.3337 5.6124 18.3337 5.83341C18.3337 6.05443 18.2459 6.26639 18.0896 6.42267C17.9333 6.57895 17.7213 6.66675 17.5003 6.66675H16.7653L16.027 15.2834C15.956 16.1155 15.5753 16.8906 14.9602 17.4554C14.3451 18.0202 13.5404 18.3335 12.7053 18.3334H7.29533C6.46025 18.3335 5.65555 18.0202 5.04045 17.4554C4.42534 16.8906 4.04464 16.1155 3.97366 15.2834L3.23533 6.66675H2.50033C2.27931 6.66675 2.06735 6.57895 1.91107 6.42267C1.75479 6.26639 1.66699 6.05443 1.66699 5.83341C1.66699 5.6124 1.75479 5.40044 1.91107 5.24416C2.06735 5.08788 2.27931 5.00008 2.50033 5.00008H6.66699ZM12.5003 10.0001C12.5003 9.77907 12.4125 9.56711 12.2562 9.41083C12.1 9.25455 11.888 9.16675 11.667 9.16675C11.446 9.16675 11.234 9.25455 11.0777 9.41083C10.9215 9.56711 10.8337 9.77907 10.8337 10.0001V13.3334C10.8337 13.5544 10.9215 13.7664 11.0777 13.9227C11.234 14.079 11.446 14.1667 11.667 14.1667C11.888 14.1667 12.1 14.079 12.2562 13.9227C12.4125 13.7664 12.5003 13.5544 12.5003 13.3334V10.0001ZM8.33366 9.16675C8.11265 9.16675 7.90068 9.25455 7.7444 9.41083C7.58812 9.56711 7.50033 9.77907 7.50033 10.0001V13.3334C7.50033 13.5544 7.58812 13.7664 7.7444 13.9227C7.90068 14.079 8.11265 14.1667 8.33366 14.1667C8.55467 14.1667 8.76663 14.079 8.92291 13.9227C9.07919 13.7664 9.16699 13.5544 9.16699 13.3334V10.0001C9.16699 9.77907 9.07919 9.56711 8.92291 9.41083C8.76663 9.25455 8.55467 9.16675 8.33366 9.16675Z" fill="white"/>
</svg>
