<svg width="17" height="17" viewBox="0 0 17 17" fill="none" xmlns="http://www.w3.org/2000/svg">
<path d="M12.2237 0.845376C12.4803 0.580567 12.7871 0.369456 13.126 0.224335C13.465 0.0792151 13.8295 0.00298566 14.1982 8.59614e-05C14.567 -0.00281374 14.9326 0.0676742 15.2738 0.207445C15.615 0.347217 15.925 0.553478 16.1858 0.814219C16.4465 1.07496 16.6528 1.38497 16.7926 1.72619C16.9323 2.06742 17.0028 2.43305 16.9999 2.80178C16.997 3.17051 16.9208 3.53498 16.7757 3.87396C16.6305 4.21295 16.4194 4.51968 16.1546 4.77629L15.0658 5.86506L11.1349 1.93415L12.2237 0.845376ZM10.3855 2.68357L1.76934 11.2998C1.45826 11.6108 1.23202 11.9969 1.11324 12.4211L0.0195161 16.3272C-0.00575408 16.4178 -0.00649672 16.5134 0.0173642 16.6043C0.0412251 16.6953 0.0888317 16.7782 0.155306 16.8447C0.221781 16.9112 0.304733 16.9588 0.395663 16.9826C0.486594 17.0065 0.582233 17.0058 0.672782 16.9805L4.57824 15.8868C5.00272 15.7689 5.38933 15.5428 5.70024 15.2307L14.3171 6.61519L10.3855 2.68357Z" fill="white"/>
</svg>
