<svg width="35" height="35" viewBox="0 0 35 35" fill="none" xmlns="http://www.w3.org/2000/svg">
<rect width="35" height="35" rx="11" fill="#003366"/>
<path d="M20.0006 20.6561L21.2923 19.3645C21.4663 19.1926 21.6864 19.075 21.9259 19.0259C22.1654 18.9768 22.414 18.9982 22.6416 19.0877L24.2158 19.7162C24.4457 19.8095 24.6429 19.9689 24.7825 20.1741C24.922 20.3793 24.9977 20.6213 25 20.8695V23.7526C24.9987 23.9214 24.9632 24.0882 24.8957 24.243C24.8282 24.3977 24.73 24.5372 24.6072 24.653C24.4844 24.7689 24.3394 24.8586 24.1809 24.9169C24.0225 24.9753 23.8539 25.0009 23.6853 24.9923C12.6544 24.3062 10.4286 14.9648 10.0077 11.3897C9.98814 11.2141 10.006 11.0364 10.0601 10.8683C10.1141 10.7001 10.2032 10.5453 10.3214 10.414C10.4396 10.2827 10.5843 10.178 10.7459 10.1066C10.9074 10.0353 11.0823 9.99894 11.259 10H14.0441C14.2926 10.0008 14.5352 10.0758 14.7408 10.2156C14.9463 10.3553 15.1053 10.5534 15.1973 10.7842L15.8259 12.3584C15.9183 12.5851 15.9418 12.8339 15.8936 13.0739C15.8454 13.3139 15.7276 13.5343 15.5548 13.7077L14.2632 14.9994C14.2632 14.9994 15.007 20.0333 20.0006 20.6561Z" fill="white"/>
</svg>
