<svg width="35" height="35" viewBox="0 0 35 35" fill="none" xmlns="http://www.w3.org/2000/svg">
<rect width="35" height="35" rx="11" fill="#003366"/>
<path d="M23.0684 10.2101C19.993 7.09663 15.007 7.09663 11.9316 10.2101C11.2015 10.9443 10.6213 11.8213 10.2252 12.7895C9.82906 13.7578 9.625 14.7978 9.625 15.8484C9.625 16.899 9.82906 17.939 10.2252 18.9073C10.6213 19.8755 11.2015 20.7525 11.9316 21.4867L17.4995 27.125L23.0684 21.4867C23.7985 20.7525 24.3787 19.8755 24.7748 18.9073C25.1709 17.939 25.375 16.899 25.375 15.8484C25.375 14.7978 25.1709 13.7578 24.7748 12.7895C24.3787 11.8213 23.7985 10.9443 23.0684 10.2101ZM17.4995 18.513C16.8419 18.513 16.2247 18.2496 15.7591 17.7714C15.2981 17.296 15.0392 16.6518 15.0392 15.9801C15.0392 15.3085 15.2981 14.6643 15.7591 14.1888C16.2237 13.7106 16.8419 13.4472 17.4995 13.4472C18.1571 13.4472 18.7753 13.7106 19.24 14.1888C19.7009 14.6643 19.9598 15.3085 19.9598 15.9801C19.9598 16.6518 19.7009 17.296 19.24 17.7714C18.7753 18.2496 18.1571 18.513 17.4995 18.513Z" fill="white"/>
</svg>
