<svg width="35" height="35" viewBox="0 0 35 35" fill="none" xmlns="http://www.w3.org/2000/svg">
<rect width="35" height="35" rx="11" fill="#E7717D"/>
<path d="M9.616 24C9.15533 24 8.771 23.846 8.463 23.538C8.155 23.23 8.00067 22.8453 8 22.384V11.616C8 11.1553 8.15433 10.771 8.463 10.463C8.77167 10.155 9.15567 10.0007 9.615 10H24.385C24.845 10 25.229 10.1543 25.537 10.463C25.845 10.7717 25.9993 11.156 26 11.616V22.385C26 22.845 25.8457 23.2293 25.537 23.538C25.2283 23.8467 24.8443 24.0007 24.385 24H9.616ZM17 17.116L25 11.885L24.692 11L17 16L9.308 11L9 11.885L17 17.116Z" fill="white"/>
</svg>
