<svg width="90" height="90" viewBox="0 0 90 90" fill="none" xmlns="http://www.w3.org/2000/svg">
<path d="M78.75 56.25V67.5H90V75H78.75V86.25H71.25V75H60V67.5H71.25V56.25H78.75ZM78.78 11.25C80.835 11.25 82.5 12.9188 82.5 14.9738V50.0325C80.0911 49.1816 77.5547 48.7479 75 48.75V18.75H15L15.0037 71.25L49.8488 36.4012C50.4936 35.7543 51.3526 35.3652 52.2642 35.3072C53.1757 35.2492 54.0771 35.5263 54.7987 36.0863L55.1512 36.405L68.445 49.7175C65.5374 50.6035 62.8394 52.0692 60.5135 54.0261C58.1877 55.983 56.2823 58.3907 54.9122 61.104C53.5421 63.8173 52.7356 66.7799 52.5415 69.8133C52.3473 72.8467 52.7695 75.8879 53.7825 78.7537L11.22 78.75C10.2331 78.749 9.28686 78.3562 8.58934 77.658C7.89181 76.9598 7.5 76.0132 7.5 75.0262V14.9738C7.50686 13.9889 7.90088 13.0463 8.59692 12.3496C9.29297 11.6528 10.2352 11.2579 11.22 11.25H78.78ZM30 26.25C31.9891 26.25 33.8968 27.0402 35.3033 28.4467C36.7098 29.8532 37.5 31.7609 37.5 33.75C37.5 35.7391 36.7098 37.6468 35.3033 39.0533C33.8968 40.4598 31.9891 41.25 30 41.25C28.0109 41.25 26.1032 40.4598 24.6967 39.0533C23.2902 37.6468 22.5 35.7391 22.5 33.75C22.5 31.7609 23.2902 29.8532 24.6967 28.4467C26.1032 27.0402 28.0109 26.25 30 26.25Z" fill="black"/>
</svg>
