<svg width="35" height="35" viewBox="0 0 35 35" fill="none" xmlns="http://www.w3.org/2000/svg">
<rect width="35" height="35" rx="11" fill="#E7717D"/>
<path d="M23.0684 10.2101C19.9931 7.09663 15.007 7.09663 11.9317 10.2101C11.2015 10.9443 10.6213 11.8213 10.2252 12.7895C9.8291 13.7578 9.62505 14.7978 9.62505 15.8484C9.62505 16.899 9.8291 17.939 10.2252 18.9073C10.6213 19.8755 11.2015 20.7525 11.9317 21.4867L17.4996 27.125L23.0684 21.4867C23.7986 20.7525 24.3787 19.8755 24.7749 18.9073C25.171 17.939 25.375 16.899 25.375 15.8484C25.375 14.7978 25.171 13.7578 24.7749 12.7895C24.3787 11.8213 23.7986 10.9443 23.0684 10.2101ZM17.4996 18.513C16.842 18.513 16.2247 18.2496 15.7591 17.7714C15.2982 17.296 15.0393 16.6518 15.0393 15.9801C15.0393 15.3085 15.2982 14.6643 15.7591 14.1888C16.2238 13.7106 16.842 13.4472 17.4996 13.4472C18.1571 13.4472 18.7754 13.7106 19.24 14.1888C19.701 14.6643 19.9598 15.3085 19.9598 15.9801C19.9598 16.6518 19.701 17.296 19.24 17.7714C18.7754 18.2496 18.1571 18.513 17.4996 18.513Z" fill="#F4F5F7"/>
</svg>
